<svg width="16" height="16" viewBox="0 0 16 16" fill="none" xmlns="http://www.w3.org/2000/svg">
<path d="M10.6665 2.66667H11.9998C12.3535 2.66667 12.6926 2.80715 12.9426 3.0572C13.1927 3.30724 13.3332 3.64638 13.3332 4.00001V13.3333C13.3332 13.687 13.1927 14.0261 12.9426 14.2761C12.6926 14.5262 12.3535 14.6667 11.9998 14.6667H3.99984C3.64622 14.6667 3.30708 14.5262 3.05703 14.2761C2.80698 14.0261 2.6665 13.687 2.6665 13.3333V4.00001C2.6665 3.64638 2.80698 3.30724 3.05703 3.0572C3.30708 2.80715 3.64622 2.66667 3.99984 2.66667H5.33317" stroke="#1A0C63" stroke-linecap="round" stroke-linejoin="round"/>
<path d="M10.0002 1.33333H6.00016C5.63197 1.33333 5.3335 1.63181 5.3335 1.99999V3.33333C5.3335 3.70152 5.63197 3.99999 6.00016 3.99999H10.0002C10.3684 3.99999 10.6668 3.70152 10.6668 3.33333V1.99999C10.6668 1.63181 10.3684 1.33333 10.0002 1.33333Z" stroke="#1A0C63" stroke-linecap="round" stroke-linejoin="round"/>
</svg>
