<svg width="25" height="25" viewBox="0 0 25 25" fill="none" xmlns="http://www.w3.org/2000/svg">
<rect x="0.0712891" y="0.0715332" width="24.8571" height="24.8571" rx="3.10714" fill="#22C55E"/>
<path d="M18.3256 11.2054V9.58712C18.3256 8.1571 17.1664 6.99784 15.7363 6.99784H9.26311C7.83309 6.99784 6.67383 8.1571 6.67383 9.58712V16.384C6.67383 17.814 7.83309 18.9733 9.26311 18.9733H10.5578M9.91044 6.02686V7.96882M15.089 6.02686V7.96882M12.4997 18.9733L14.481 18.4085C14.5872 18.3782 14.684 18.3213 14.7621 18.2432L18.0083 14.997C18.4314 14.5739 18.4314 13.8879 18.0083 13.4647C17.5852 13.0416 16.8991 13.0416 16.476 13.4647L13.2298 16.7109C13.1517 16.789 13.0948 16.8858 13.0646 16.992L12.4997 18.9733Z" stroke="#F0FDF4" stroke-width="1.39821" stroke-linecap="round"/>
</svg>
