<?xml version="1.0" standalone="no"?>
<!DOCTYPE svg PUBLIC "-//W3C//DTD SVG 20010904//EN"
 "http://www.w3.org/TR/2001/REC-SVG-20010904/DTD/svg10.dtd">
<svg version="1.0" xmlns="http://www.w3.org/2000/svg"
 width="49.000000pt" height="50.000000pt" viewBox="0 0 49.000000 50.000000"
 preserveAspectRatio="xMidYMid meet">

<g transform="translate(0.000000,50.000000) scale(0.100000,-0.100000)"
fill="#000000" stroke="none">
<path d="M218 433 c12 -2 32 -2 45 0 12 2 2 4 -23 4 -25 0 -35 -2 -22 -4z"/>
<path d="M145 412 c-16 -11 -37 -27 -45 -38 -12 -16 -10 -15 10 2 14 12 39 29
55 37 17 9 26 16 20 17 -5 0 -23 -8 -40 -18z"/>
<path d="M315 416 c31 -14 74 -56 93 -91 7 -12 12 -15 12 -6 0 21 -94 111
-116 111 -13 -1 -10 -5 11 -14z"/>
<path d="M233 383 c9 -2 23 -2 30 0 6 3 -1 5 -18 5 -16 0 -22 -2 -12 -5z"/>
<path d="M307 360 c38 -22 54 -50 64 -105 6 -39 7 -39 8 -7 0 18 -6 46 -14 62
-16 30 -60 70 -79 70 -6 0 3 -9 21 -20z"/>
<path d="M141 335 c-26 -30 -31 -43 -30 -83 l2 -47 6 52 c5 39 14 60 36 83 16
16 26 30 23 30 -3 0 -20 -16 -37 -35z"/>
<path d="M75 339 c-4 -6 -5 -12 -2 -15 2 -3 7 2 10 11 7 17 1 20 -8 4z"/>
<path d="M61 294 c0 -11 3 -14 6 -6 3 7 2 16 -1 19 -3 4 -6 -2 -5 -13z"/>
<path d="M165 282 c2 -9 4 -20 4 -24 2 -13 19 -9 24 5 3 7 -3 19 -13 25 -15 9
-18 8 -15 -6z"/>
<path d="M319 293 c-1 -5 -1 -12 0 -17 1 -5 -4 -6 -11 -3 -9 3 -14 -3 -14 -14
0 -16 2 -17 16 -4 9 8 17 22 17 30 0 15 -6 21 -8 8z"/>
<path d="M423 255 c0 -27 2 -38 4 -22 2 15 2 37 0 50 -2 12 -4 0 -4 -28z"/>
<path d="M242 260 c0 -19 2 -27 5 -17 2 9 2 25 0 35 -3 9 -5 1 -5 -18z"/>
<path d="M60 214 c0 -10 5 -26 10 -34 8 -11 9 -7 4 15 -8 37 -14 45 -14 19z"/>
<path d="M356 193 c-6 -14 -5 -15 5 -6 7 7 10 15 7 18 -3 3 -9 -2 -12 -12z"/>
<path d="M162 148 c16 -16 36 -28 46 -27 12 0 9 3 -8 10 -14 6 -34 18 -45 27
-12 9 -8 5 7 -10z"/>
<path d="M320 149 c-22 -18 -22 -19 -3 -10 12 6 25 16 28 21 9 15 3 12 -25
-11z"/>
<path d="M91 143 c7 -12 15 -20 18 -17 3 2 -3 12 -13 22 -17 16 -18 16 -5 -5z"/>
<path d="M374 129 c-10 -12 -37 -30 -59 -40 -22 -10 -34 -19 -27 -19 21 0 65
26 91 54 14 14 22 26 19 26 -3 0 -13 -10 -24 -21z"/>
<path d="M268 123 c7 -3 16 -2 19 1 4 3 -2 6 -13 5 -11 0 -14 -3 -6 -6z"/>
<path d="M120 116 c0 -2 8 -10 18 -17 15 -13 16 -12 3 4 -13 16 -21 21 -21 13z"/>
<path d="M170 80 c8 -5 22 -9 30 -9 10 0 8 3 -5 9 -27 12 -43 12 -25 0z"/>
<path d="M238 63 c7 -3 16 -2 19 1 4 3 -2 6 -13 5 -11 0 -14 -3 -6 -6z"/>
</g>
</svg>
