<svg width="28" height="28" viewBox="0 0 28 28" fill="none" xmlns="http://www.w3.org/2000/svg">
<path d="M18.6665 24.5V22.1667C18.6665 20.929 18.1748 19.742 17.2997 18.8668C16.4245 17.9917 15.2375 17.5 13.9998 17.5H5.83317C4.59549 17.5 3.40851 17.9917 2.53334 18.8668C1.65817 19.742 1.1665 20.929 1.1665 22.1667V24.5" stroke="#1A0C63" stroke-width="1.75" stroke-linecap="round" stroke-linejoin="round"/>
<path d="M9.91667 12.8333C12.494 12.8333 14.5833 10.744 14.5833 8.16667C14.5833 5.58934 12.494 3.5 9.91667 3.5C7.33934 3.5 5.25 5.58934 5.25 8.16667C5.25 10.744 7.33934 12.8333 9.91667 12.8333Z" stroke="#1A0C63" stroke-width="1.75" stroke-linecap="round" stroke-linejoin="round"/>
<path d="M23.3335 9.33333V16.3333" stroke="#1A0C63" stroke-width="1.75" stroke-linecap="round" stroke-linejoin="round"/>
<path d="M26.8335 12.8333H19.8335" stroke="#1A0C63" stroke-width="1.75" stroke-linecap="round" stroke-linejoin="round"/>
</svg>
