<svg width="25" height="25" viewBox="0 0 25 25" fill="none" xmlns="http://www.w3.org/2000/svg">
<rect y="0.0715332" width="24.8571" height="24.8571" rx="3.10714" fill="#4759FF"/>
<path d="M18.3385 11.1103C19.0892 11.9 19.0892 13.1 18.3385 13.8897C17.0725 15.2218 14.8982 17.0312 12.4283 17.0312C9.95843 17.0312 7.78408 15.2218 6.51806 13.8897C5.76742 13.1 5.76742 11.9 6.51806 11.1103C7.78408 9.77823 9.95843 7.96875 12.4283 7.96875C14.8982 7.96875 17.0725 9.77823 18.3385 11.1103Z" stroke="#EFF6FF" stroke-width="1.16518"/>
<path d="M14.3703 12.5C14.3703 13.5725 13.5008 14.442 12.4283 14.442C11.3558 14.442 10.4863 13.5725 10.4863 12.5C10.4863 11.4275 11.3558 10.558 12.4283 10.558C13.5008 10.558 14.3703 11.4275 14.3703 12.5Z" stroke="#EFF6FF" stroke-width="1.16518"/>
</svg>
